<svg width="1505" height="240" viewBox="0 0 1505 240" fill="none" xmlns="http://www.w3.org/2000/svg">
<path d="M105.782 205.866C97.721 206.025 89.7097 204.563 82.2242 201.567C75.4848 198.779 69.8813 193.801 66.3182 187.437C62.4969 180.903 60.5862 171.999 60.5862 160.726V108.249H38.719V78.7581H60.6436L64.6846 43.6781H95.9522V78.7581H128.968V108.249H95.9522V160.955C95.9522 166.515 97.1845 170.385 99.6206 172.563C102.057 174.741 106.212 175.859 112.087 175.859H128.739V205.866H105.782Z" fill="#5A89FF"/>
<path d="M181.214 78.7581H145.906V205.866H181.214V78.7581Z" fill="#5A89FF"/>
<path d="M264.184 208.875C252.262 209.157 240.473 206.312 229.993 200.621C220.341 195.229 212.397 187.235 207.065 177.55C201.461 167.131 198.637 155.444 198.869 143.616C198.592 131.425 201.36 119.358 206.922 108.507C212.194 98.5482 220.132 90.2522 229.85 84.5474C240.29 78.5146 252.186 75.4614 264.241 75.72C275.796 75.4543 287.206 78.3267 297.257 84.0315C306.503 89.3963 314.128 97.1598 319.325 106.501C324.75 116.379 327.497 127.504 327.292 138.772C327.292 140.463 327.292 142.355 327.149 144.504C327.006 146.654 326.948 148.746 326.776 150.924H223.831V129.687H291.668C291.523 126.204 290.688 122.784 289.212 119.626C287.736 116.468 285.649 113.634 283.071 111.287C277.884 106.552 271.061 104.014 264.041 104.208C258.594 104.135 253.228 105.531 248.507 108.249C243.781 111.054 239.976 115.178 237.559 120.115C234.624 126.382 233.239 133.262 233.518 140.177V147.485C233.373 153.423 234.62 159.312 237.158 164.681C239.484 169.428 243.125 173.407 247.647 176.145C252.505 178.958 258.059 180.339 263.668 180.129C268.938 180.38 274.164 179.064 278.686 176.346C282.373 173.89 285.341 170.497 287.284 166.515H323.366C321.186 174.561 317.163 181.989 311.616 188.211C305.96 194.702 298.983 199.91 291.153 203.487C282.672 207.268 273.469 209.156 264.184 209.018" fill="#5A89FF"/>
<path d="M342.596 205.866V78.758H373.635L376.157 99.422C380.104 92.3299 385.847 86.3998 392.808 82.2259C400.535 77.7746 409.344 75.5523 418.258 75.806C427.62 75.4913 436.882 77.8045 444.997 82.4839C452.355 87.0992 458.156 93.8192 461.648 101.772C465.764 111.587 467.719 122.173 467.38 132.811V205.866H432.387V135.992C432.387 126.248 430.237 118.796 425.967 113.437C421.697 108.077 415.162 105.469 406.421 105.469C401.272 105.411 396.206 106.769 391.776 109.396C387.399 112.007 383.859 115.816 381.573 120.373C378.983 125.847 377.725 131.858 377.905 137.913V205.866H342.596Z" fill="#5A89FF"/>
<path d="M542.87 208.875C531.96 209.026 521.237 206.042 511.975 200.277C502.758 194.53 495.333 186.32 490.537 176.575C485.254 165.893 482.61 154.099 482.828 142.183C482.614 130.328 485.3 118.6 490.652 108.02C495.626 98.2796 503.168 90.0838 512.462 84.3181C521.933 78.4992 532.873 75.5155 543.987 75.7201C552.068 75.5686 560.083 77.2029 567.46 80.5063C574.139 83.6086 579.847 88.4738 583.967 94.5785V24.2751H619.276V205.866H587.751L583.967 188.469C581.276 192.34 578.054 195.813 574.395 198.787C570.424 201.957 565.948 204.437 561.154 206.124C555.268 208.115 549.083 209.085 542.87 208.99M551.697 178.237C557.845 178.386 563.912 176.808 569.208 173.68C574.159 170.663 578.138 166.286 580.672 161.07C583.444 155.248 584.818 148.859 584.684 142.412C584.812 135.966 583.438 129.578 580.672 123.754C578.105 118.516 574.073 114.135 569.064 111.144C563.795 108.057 557.774 106.49 551.668 106.616C545.681 106.497 539.781 108.067 534.644 111.144C529.651 114.205 525.627 118.616 523.037 123.869C520.216 129.546 518.791 135.815 518.882 142.154C518.719 148.703 520.145 155.193 523.037 161.07C525.638 166.285 529.662 170.657 534.644 173.68C539.779 176.767 545.678 178.346 551.668 178.237" fill="#5A89FF"/>
<path d="M682.585 208.875C673.638 209.181 664.742 207.416 656.591 203.716C650.183 200.7 644.795 195.879 641.086 189.845C637.644 184.004 635.86 177.336 635.927 170.557C635.818 163.289 637.927 156.16 641.974 150.122C646.454 143.819 652.739 139.022 660.001 136.365C669.83 132.803 680.246 131.14 690.696 131.464H721.476C721.643 126.278 720.876 121.103 719.212 116.188C717.827 112.406 715.146 109.238 711.646 107.246C707.361 105.056 702.583 104.01 697.774 104.208C692.199 104.04 686.688 105.44 681.868 108.249C679.705 109.594 677.862 111.398 676.471 113.532C675.079 115.666 674.173 118.079 673.815 120.602H639.71C640.318 111.964 643.425 103.689 648.652 96.7853C654.053 89.9342 661.131 84.5934 669.201 81.2802C678.275 77.4905 688.028 75.5983 697.86 75.7201C708.584 75.4853 719.236 77.5065 729.128 81.6528C737.529 85.1628 744.651 91.1647 749.534 98.8489C754.511 107.339 756.967 117.072 756.613 126.907V205.866H727.093L723.081 186.95C721.243 190.145 719.03 193.108 716.489 195.777C713.843 198.491 710.834 200.826 707.547 202.713C704.049 204.69 700.312 206.212 696.427 207.242C691.895 208.389 687.231 208.938 682.556 208.875M691.383 181.648C695.227 181.717 699.043 180.985 702.589 179.499C705.892 178.069 708.831 175.914 711.187 173.193C713.581 170.456 715.517 167.349 716.919 163.993C718.402 160.433 719.46 156.71 720.072 152.902V152.644H694.593C690.431 152.5 686.28 153.141 682.356 154.536C679.591 155.543 677.18 157.336 675.42 159.694C673.912 161.927 673.122 164.567 673.156 167.261C673.057 170.088 673.849 172.875 675.42 175.228C677.12 177.452 679.445 179.119 682.098 180.014C685.12 181.146 688.328 181.7 691.555 181.648" fill="#5A89FF"/>
<path d="M776.646 205.866V29.3193H818.775L871.738 138.027L924.443 29.3193H966.802V205.866H931.493V89.0757L885.609 181.132H857.609L811.954 89.3337V205.866H776.646Z" fill="#0136E8"/>
<path d="M1030.63 208.875C1021.68 209.181 1012.78 207.416 1004.63 203.716C998.225 200.699 992.836 195.879 989.128 189.845C985.685 184.004 983.902 177.336 983.969 170.557C983.83 163.305 985.888 156.182 989.873 150.122C994.37 143.824 1000.66 139.03 1007.93 136.365C1017.78 132.796 1028.21 131.132 1038.68 131.464H1069.46C1069.61 126.278 1068.85 121.107 1067.2 116.188C1065.81 112.406 1063.13 109.238 1059.63 107.246C1055.34 105.06 1050.57 104.013 1045.76 104.208C1040.18 104.04 1034.67 105.44 1029.85 108.249C1027.69 109.594 1025.85 111.398 1024.46 113.532C1023.06 115.666 1022.16 118.079 1021.8 120.602H987.752C988.36 111.964 991.467 103.689 996.694 96.7853C1002.09 89.9341 1009.17 84.5934 1017.24 81.2802C1026.32 77.4874 1036.07 75.5951 1045.9 75.7201C1056.63 75.483 1067.3 77.5042 1077.2 81.6528C1085.6 85.1628 1092.72 91.1647 1097.6 98.8488C1102.57 107.314 1105.02 117.015 1104.68 126.821V205.866H1075.16L1071.12 186.95C1069.27 190.156 1067.03 193.121 1064.45 195.777C1061.8 198.491 1058.79 200.826 1055.5 202.713C1052.01 204.683 1048.29 206.205 1044.41 207.241C1039.88 208.389 1035.22 208.938 1030.54 208.875M1039.37 181.648C1043.21 181.717 1047.03 180.985 1050.57 179.498C1053.88 178.069 1056.82 175.914 1059.17 173.193C1061.56 170.449 1063.49 167.344 1064.9 163.993C1066.39 160.433 1067.44 156.71 1068.06 152.902V152.644H1042.58C1038.42 152.5 1034.26 153.141 1030.34 154.535C1027.58 155.543 1025.16 157.336 1023.4 159.694C1021.88 161.921 1021.09 164.565 1021.14 167.261C1021.03 170.09 1021.82 172.881 1023.4 175.228C1025.04 177.416 1027.28 179.079 1029.85 180.014C1032.88 181.146 1036.08 181.7 1039.31 181.648" fill="#0136E8"/>
<path d="M1185.73 208.875C1173.82 209.084 1162.07 206.116 1151.68 200.277C1141.93 194.751 1133.9 186.638 1128.47 176.833C1122.79 166.398 1119.93 154.663 1120.16 142.785C1119.91 130.658 1122.77 118.669 1128.47 107.963C1133.85 98.0543 1141.89 89.8452 1151.68 84.2609C1162.07 78.4215 1173.82 75.4538 1185.73 75.6628C1200.61 75.1681 1215.22 79.7015 1227.2 88.5312C1238.5 97.3103 1246.11 109.997 1248.53 124.098H1211.27C1209.91 118.751 1206.7 114.058 1202.21 110.857C1197.49 107.751 1191.99 106.044 1186.34 105.932C1180.69 105.82 1175.12 107.309 1170.28 110.227C1165.67 113.285 1162.03 117.615 1159.82 122.694C1157.16 128.859 1155.87 135.528 1156.04 142.24C1155.98 147.365 1156.7 152.469 1158.19 157.373C1159.45 161.578 1161.55 165.48 1164.38 168.837C1166.97 171.866 1170.14 174.35 1173.7 176.145C1177.39 177.937 1181.45 178.84 1185.56 178.782C1189.54 178.827 1193.49 178.056 1197.17 176.518C1200.59 175.069 1203.64 172.876 1206.11 170.098C1208.55 167.3 1210.32 163.975 1211.27 160.382H1248.53C1245.9 174.325 1238.28 186.83 1227.09 195.548C1215.23 204.572 1200.63 209.247 1185.73 208.789" fill="#0136E8"/>
<path d="M1265.18 205.866V78.7581H1296.44L1299.71 101.944C1302.82 96.6658 1306.78 91.9396 1311.43 87.958C1316.12 83.9635 1321.52 80.882 1327.34 78.8727C1333.71 76.7078 1340.41 75.6418 1347.14 75.7201V112.978H1334.76C1330.09 112.929 1325.42 113.488 1320.89 114.641C1316.87 115.653 1313.16 117.619 1310.06 120.373C1306.85 123.306 1304.42 126.989 1302.98 131.091C1301.17 136.402 1300.31 141.991 1300.46 147.6V205.866H1265.18Z" fill="#0136E8"/>
<path d="M1415.47 208.875C1403.91 209.056 1392.51 206.148 1382.45 200.449C1372.76 194.877 1364.82 186.707 1359.52 176.862C1353.84 166.303 1350.97 154.459 1351.18 142.47C1350.96 130.368 1353.86 118.413 1359.61 107.762C1364.99 97.931 1372.97 89.7705 1382.68 84.1748C1392.76 78.4462 1404.19 75.5264 1415.78 75.7201C1427.28 75.5108 1438.61 78.4335 1448.57 84.1748C1458.16 89.8142 1466.07 97.9063 1471.5 107.619C1477.37 118.219 1480.33 130.182 1480.09 142.298C1480.3 154.373 1477.34 166.291 1471.5 176.862C1466.1 186.631 1458.18 194.776 1448.57 200.449C1438.55 206.158 1427.17 209.068 1415.64 208.875M1415.64 178.381C1420.72 178.429 1425.71 176.973 1429.97 174.196C1434.46 171.191 1438.03 167.006 1440.29 162.102C1443.09 155.887 1444.43 149.112 1444.21 142.298C1444.42 135.461 1443.13 128.662 1440.43 122.379C1438.24 117.432 1434.65 113.229 1430.11 110.284C1425.89 107.596 1420.99 106.192 1415.98 106.243C1410.83 106.179 1405.76 107.58 1401.37 110.284C1396.76 113.203 1393.12 117.408 1390.88 122.379C1388.14 128.651 1386.86 135.46 1387.12 142.298C1386.9 149.098 1388.19 155.863 1390.91 162.102C1393.11 167.048 1396.71 171.249 1401.25 174.196C1405.52 176.953 1410.5 178.407 1415.58 178.381" fill="#0136E8"/>
<path d="M163.789 62.3644C158.031 62.5834 152.419 60.5239 148.17 56.6324C146.219 54.8639 144.67 52.698 143.627 50.2805C142.584 47.863 142.071 45.25 142.123 42.6176C142.072 39.9937 142.585 37.3894 143.629 34.9813C144.672 32.5732 146.221 30.4174 148.17 28.6601C152.437 24.7979 158.037 22.7429 163.789 22.9281C169.551 22.7414 175.16 24.7961 179.437 28.6601C181.409 30.4365 182.971 32.6201 184.015 35.0598C185.059 37.4994 185.561 40.1369 185.485 42.7896C185.536 45.422 185.023 48.035 183.98 50.4525C182.937 52.87 181.388 55.0359 179.437 56.8044C175.176 60.6948 169.556 62.7536 163.789 62.5364" fill="#FF7DCB"/>
</svg>
